/* XPM */
static char *_9f948c802f84f4bc0e4129786040e1eoR4baaWOydRzdkF6[] = {
/* columns rows colors chars-per-pixel */
"64 64 211 2 ",
"   c #45320F",
".  c #463312",
"X  c #493616",
"o  c #44361B",
"O  c #48371B",
"+  c #4A3A1A",
"@  c #4B3A1D",
"#  c #503D1F",
"$  c #463B24",
"%  c #4A3C23",
"&  c #473D29",
"*  c #4A3F2B",
"=  c #503E21",
"-  c #493F30",
";  c #4E411C",
":  c #59491C",
">  c #66591E",
",  c #6E621B",
"<  c #73671D",
"1  c #4F4027",
"2  c #4D412C",
"3  c #534224",
"4  c #54442B",
"5  c #574B28",
"6  c #5A4A2D",
"7  c #4B4331",
"8  c #4B4637",
"9  c #524633",
"0  c #544A34",
"q  c #5E4E34",
"w  c #51473A",
"e  c #534B3A",
"r  c #594D3D",
"t  c #5F5035",
"y  c #5D513A",
"u  c #645924",
"i  c #655C2D",
"p  c #605036",
"a  c #62543C",
"s  c #665A3A",
"d  c #6C622B",
"f  c #756B27",
"g  c #7F7420",
"h  c #7C742B",
"j  c #6B6333",
"k  c #6F673A",
"l  c #726936",
"z  c #787134",
"x  c #4B4E49",
"c  c #564D43",
"v  c #584E41",
"b  c #514F4A",
"n  c #4D504D",
"m  c #5B5244",
"M  c #57544B",
"N  c #5C544C",
"B  c #4B5353",
"V  c #4A5659",
"C  c #4B595D",
"Z  c #5E5751",
"A  c #555853",
"S  c #5B5B54",
"D  c #555C5B",
"F  c #595D5A",
"G  c #625642",
"H  c #655A44",
"J  c #6A5B42",
"K  c #635B4C",
"L  c #605752",
"P  c #625B54",
"I  c #635D5B",
"U  c #5A615D",
"Y  c #726B49",
"T  c #746B4A",
"R  c #6B6455",
"E  c #66615D",
"W  c #696558",
"Q  c #6B655A",
"!  c #736B56",
"~  c #756A56",
"^  c #7B7357",
"/  c #4E5C61",
"(  c #525E63",
")  c #556165",
"_  c #53636B",
"`  c #5A656B",
"'  c #546771",
"]  c #566973",
"[  c #5B6B75",
"{  c #5E6E79",
"}  c #6A6563",
"|  c #6D6B63",
" . c #6B6C69",
".. c #716D64",
"X. c #716E69",
"o. c #75736C",
"O. c #797569",
"+. c #616E76",
"@. c #606F79",
"#. c #6B7476",
"$. c #63707A",
"%. c #777671",
"&. c #797773",
"*. c #7B7A75",
"=. c #7E7E7A",
"-. c #857A1D",
";. c #847B28",
":. c #837B38",
">. c #857E4B",
",. c #827C53",
"<. c #857A66",
"1. c #847A68",
"2. c #7F807C",
"3. c #948A1C",
"4. c #9E971F",
"5. c #A59C1D",
"6. c #AFA71E",
"7. c #B5AD18",
"8. c #BCB517",
"9. c #8D8423",
"0. c #8C852E",
"q. c #8F892D",
"w. c #948926",
"e. c #958D24",
"r. c #948E2B",
"t. c #979128",
"y. c #9A942C",
"u. c #9E982D",
"i. c #8C8637",
"p. c #928C32",
"a. c #958E3C",
"s. c #9B9533",
"d. c #9B943C",
"f. c #A29B25",
"g. c #A39D2B",
"h. c #A59E36",
"j. c #A29B3A",
"k. c #ABA424",
"l. c #A6A22D",
"z. c #A9A32C",
"x. c #ADA92C",
"c. c #B4AD24",
"v. c #B0A729",
"b. c #B1AE2D",
"n. c #BCB525",
"m. c #BEB924",
"M. c #B6B12A",
"N. c #BAB52C",
"B. c #BDBA2D",
"V. c #ACA532",
"C. c #ACA736",
"Z. c #B4AE34",
"A. c #B2AD3B",
"S. c #B6B232",
"D. c #B9B631",
"F. c #BCB932",
"G. c #B9B43C",
"H. c #BEB93D",
"J. c #C1B816",
"K. c #C2B91C",
"L. c #C2BC24",
"P. c #C2BE2D",
"I. c #C1BE34",
"U. c #C2BC3A",
"Y. c #C4C126",
"T. c #C5C12B",
"R. c #C4C038",
"E. c #898449",
"W. c #938D44",
"Q. c #938D4D",
"!. c #9A944A",
"~. c #8B8553",
"^. c #928B55",
"/. c #9F9757",
"(. c #A29D45",
"). c #A39D4B",
"_. c #A19C5A",
"`. c #ACA845",
"'. c #ABA549",
"]. c #B1AC43",
"[. c #B1AB49",
"{. c #B7B345",
"}. c #B9B444",
"|. c #BEB942",
" X c #BDB944",
".X c #B8B44A",
"XX c #A5A153",
"oX c #AAA955",
"OX c #BEBB53",
"+X c #8D826E",
"@X c #9C9A65",
"#X c #96956C",
"$X c #8E8470",
"%X c #8E8E77",
"&X c #81817E",
"*X c #8B8B7D",
"=X c #8F907A",
"-X c #939272",
";X c #909079",
":X c #A29966",
">X c #C2BD44",
",X c #C3BD46",
"<X c #C4BE46",
"1X c #C2BD49",
"2X c #C0BD54",
"3X c #C5C04C",
"4X c #848582",
"5X c #848683",
"6X c #858684",
"7X c #878882",
"8X c #888980",
/* pixels */
"5X5X5X5X5X5X5X5X5X5X5X5X5X5X5X5X5X5X5X5X5X5X5X5X6X6X5X5X5X5X5X5X5X5X5X5X5X5X5X5X5X5X5X5X5X5X5X5X5X5X5X5X5X5X5X5X6X6X5X5X5X6X5X5X",
"5X5X5X5X5X5X5X5X5X5X5X5X5X5X5X5X5X5X5X5X6X&XX.o.*.=.&X5X6X6X6X6X5X5X5X5X5X5X6X6X6X6X6X6X5X5X5X5X5X5X5X5X5X5X5X5X5X5X5X5X5X5X5X5X",
"5X5X5X5X5X5X5X5X5X5X5X5X5X5X5X5X5X5X5X6X=.P m I I E }  .o.*.=.5X5X6X5X5X5X5X&X=.=.*.&.*.5X6X5X5X5X5X5X5X5X5X5X5X5X5X5X5X5X5X5X5X",
"5X5X5X5X5X5X5X5X5X5X5X5X5X5X5X5X5X5X5X%.K r m I I I I I I I E }  .o.o. .} } } E E I I I | =.6X5X5X5X5X5X5X5X5X5X5X5X5X5X5X5X5X5X",
"5X5X5X5X5X5X5X5X5X5X5X5X5X5X5X5X6X5XX.m r r v P I I I I I I I ! ~.).'.!.~.! I I I I I I I E %.5X6X5X5X5X5X5X5X5X5X5X5X5X5X5X5X5X",
"5X5X5X5X5X5X5X5X5X5X5X5X5X5X5X6X=.W m r r r v P I I I I I E Q..X,X<X<X<X,X[.^ I I I I I I I I X.&X6X5X5X5X5X5X5X5X5X5X5X5X5X5X5X",
"5X5X5X5X5X5X5X5X5X5X5X5X5X5X5Xo.N v r v r v v L I I I I I ~.1X<X,X,X,X,X,X<X{.,.I I I I I I I I } *.5X6X5X5X5X5X5X5X5X5X5X5X5X5X",
"5X5X5X5X5X5X5X5X5X5X5X5X5X6X*.e 9 v v v v v r K E I I I ,. X,X,X,X,X,X,X,X,X<X{.! I I I I I I I I I o.5X6X5X5X5X5X5X5X5X5X5X5X5X",
"5X5X5X5X5X5X5X5X5X5X5X5X5X6X| 2 1 v v v a k :.i.E.^ ! E ).<X,X,X,X,X,X,X,X,X,X,X~.I I I I W ^ ! W I I W =.6X5X5X5X5X5X5X5X5X5X5X",
"5X5X5X5X5X5X5X5X5X5X5X5X5X6XW % % r v G :.a.a.a.a.a.a.>.[.<X,X,X,X,X,X,X,X,X,X<X).E I E ~.'.}.{.'.!.T 7 m &X6X5X5X5X5X5X5X5X5X5X",
"5X5X5X5X5X5X5X5X5X5X5X5X5X5Xm % X e m :.a.a.a.a.a.a.a.d. X,X,X,X,X,X,X,X,X,X,X<X[.W I Q. X|. X X X|.C.i * W 5X5X5X5X5X5X5X5X5X5X",
"5X5X5X5X5X5X5X5X5X5X5X5X6X=.e @ X 9 k a.a.a.a.a.a.a.a.d.}.,X,X,X,X,X,X,X,X,X,X<X'.! ,.{.|.|.|. X X XH.g.6 2 o.6X5X5X5X5X5X5X5X5X",
"5X5X5X5X5X5X5X5X5X5X5X5X6Xo.7 X X 4 z d.j.j.j.d.a.a.a.a.d.}.,X,X,X,X,X,X,X,X,X,X'.Q.].|.|.|.|. X X X|.N.d * r &X6X5X5X5X5X5X5X5X",
"5X5X5X5X5X5X5X5X5X5X5X5X6X| 2 X X 3 p.D.P.P.P.I.S.h.d.a.a.d.}.,X,X,X,X,X,X,X,X X!.!.}.|.|.|.|. X X X XP.h - * R 5X5X5X5X5X5X5X5X",
"5X5X5X5X5X5X5X5X5X5X5X5X6XR % X X g P.T.T.T.T.T.T.T.S.d.a.a.`.,X,X,X,X,X,X,X,X'.Q.).|.H.|.|.|. X X X XI.w.7 * 2 o.6X5X5X5X5X5X5X",
"5X5X5X5X5X5X5X5X5X5X5X5X5Xm % X ; x.T.T.T.T.T.T.T.T.T.D.d.a.j.,X<X,X,X,X,X,X`.Q.Q.).|.H.|.|.|.|.|.|. XI.w.7 2 * e =.6X6X5X5X5X5X",
"5X5X5X5X5X5X5X5X5X5X5X6X=.w @ X < P.T.T.T.T.T.T.T.T.T.T.S.d.i ;.h.G.,X}.].).Q.Q.Q.).}.H.|.|.|.|.|.|.|.P.h - * 2 i ~.#X%X6X5X5X5X",
"5X5X5X5X5X5X5X5X5X5X5X6Xo.2 @ X -.P.T.T.T.T.T.T.T.T.T.T.T.s.f 9.k.N.I.A.!.Q.Q.W.a.W.`.|.|.|.|.|.|.|.H.n.i 2 i p.Z.D.D.].-X6X5X5X",
"5X5X5X5X5X5X5X5X5X5X5X6XW 2 X X < n.T.T.T.T.T.T.T.T.T.T.T.M.N.T.T.T.T.T.F.(.W.p.r.p.).|.|.|.|.|.|.|.F.f.6 h Z.F.D.D.D.D.A.%X6X5X",
"5X5X5X5X5X5X5X5X5X5X5X5XN % : 9.g.B.T.T.T.T.T.T.T.T.T.T.T.T.T.P.Y.T.T.T.T.P.s.r.r.r.d.{.|.|.|. X|.H.c.d :.S.D.N.N.D.D.D.n.XX6X5X",
"5X5X5X5X5X5X5X5X5X5X6X=.w 3 t.R.I.I.I.T.T.T.T.T.T.T.T.T.P.b.g.g.g.l.x.B.T.B.y.r.r.r.r.s.A.|.|.|.H.c.h :.S.D.D.D.D.D.D.D.L.XX6X5X",
"5X5X5X5X5X5X5X5X5X5X6X .7 f D.I.I.I.I.I.P.T.T.T.T.T.T.T.M.t.r.r.r.r.r.y.x.b.r.r.r.r.r.r.s.C.A.V.g.;.j b.F.D.D.D.D.D.D.D.I.@X6X5X",
"5X5X5X5X5X5X5X5X5X5X5XF % ;.N.I.I.I.I.I.I.P.P.P.P.L.L.n.f.r.r.r.r.r.r.r.r.g.r.r.r.r.r.y.l.C.Z.b.l.;.r.F.D.D.D.D.D.D.D.U.A.T =.6X",
"5X5X5X5X5X5X5X5X5X6X%.w % f N.I.I.I.I.I.I.I.I.I.P.n.k.y.r.r.r.r.r.r.r.r.r.r.r.r.r.g.b.B.P.P.P.T.P.N.S.N.D.D.D.D.D.D.F.U.i.q W 5X",
"5X5X5X5X5X5X5X5X5Xo.e % % 5 g.I.I.I.I.I.I.I.I.F.I.F.u.r.r.r.r.r.r.r.r.r.r.r.g.u.C.P.P.P.P.P.P.P.P.B.D.N.D.D.D.D.D.F.I.C.s q H &X",
"5X5X5X5X5X5X6X5XW 4 % % % % u z.P.P.I.I.I.I.I.I.I.I.z.r.r.r.r.r.r.r.r.r.r.r.x.B.I.P.P.P.P.P.P.P.P.B.D.D.D.D.D.D.B.I.V.l q a o.5X",
"5X5X5X5X5X6X=.K % % % % % % % u k.K.L.I.I.I.I.I.I.I.z.r.r.r.r.r.r.r.r.r.r.r.u.B.P.P.P.P.P.P.P.P.P.P.F.D.D.D.N.m.P.V.j q y ! 5X5X",
"5X5X5X5X6X5XW e 2 % % % % % % % 5 -.7.K.L.P.P.I.P.N.t.r.r.r.r.r.r.r.r.r.r.r.r.l.P.I.P.P.P.P.P.P.P.P.x.M.n.m.8.7.t.s q p R &X5X5X",
"5X5X5X5X5X%.L Z N m w 1 % % % % % % > 3.k.8.K.K.K.P.g.r.r.r.r.r.r.r.r.r.r.r.r.u.B.T.P.P.P.P.P.T.P.v.j h e.4.9.j e r t H =.6X5X5X",
"5X5X5X5X5XX.P Z Z Z Z N c 9 1 % % % % 4 l M.P.P.P.P.g.r.r.r.r.r.r.r.r.r.r.r.r.u.B.T.P.P.P.P.P.m.z.h w w e e w w r t G &.6X5X5X5X",
"5X5X5X5X5X5X=.o.! K Z L L Z N c 9 2 % % f M.I.I.I.I.f.w.r.r.r.r.r.r.r.r.r.r.r.f.n.P.L.L.L.m.v.t.r.f w w w w w 0 y q K 5X5X5X5X5X",
"5X5X5X5X5X5X6X=X].i w M Z Z Z Z N N c 9 5 t.P.I.I.I.M.e.y.s.s.y.y.r.r.r.r.r.w.e.6.8.8.7.k.t.q.q.q.j w w w w w t y 6 4 *.6X5X5X5X",
"5X5X5X5X5X5X5XoXk.3 $ 7 B D S Z Z Z Z Z M G i.S.I.B.D.G.G.2X2XOXOX{.A.C.g.e.9.0.q.r.r.q.0.W._.a.l e w w w e r y 0 @ + R 6X5X5X5X",
"5X5X5X5X5X5X7X{.9.$ $ $ x / _ ) F S Z Z Z Z Z Y E.p.u.C.S.H.,X1X1X<X3X3XI.n.k.r.0.0.0.p./.:X^.Y w w w w e q y q % + + q &X6X5X5X",
"5X5X5X5X5X5X8X].> o $ $ 7 / { [ ' _ ( F Z N Z Z N r y s d g -.3.5.6.c.M.m.L.m.0.j z l l T H y e e e w w e t t 3 + + + # O.6X6X5X",
"5X5X5X5X5X5X7X~.; o $ $ & n _ { { ] ' _ ( A M N m r r r e e 9 4 5 u < -.h h h t e e e e e e e e e 0 r y a t q @ + + + # X.6X6X5X",
"5X5X5X5X5X5X5XK o o o $ $ 7 B / ` @.{ ] _ _ D M c e r r r r r r e 9 * % % 7 e e e e e e e e 0 y a a s J a q 0 4 + + + = o.6X5X5X",
"5X5X5X5X5X6X2.e o o o $ $ $ 8 n V ( [ @.[ ' _ _ D M m v v r r r r r r e 9 1 2 e e e 0 e y a s J J J J s a 0 0 0 3 + + 3 *.6X5X5X",
"5X5X5X5X5X6Xo.% o o o o $ % w c b B C _ { { [ ' ' _ _ _ ) D D A m r r r r r e e 0 y a J J J J J J H y 0 0 0 0 4 = + + 4 *.6X5X5X",
"5X5X5X5X5X6X%.% o o o o $ 2 c c c c n B / ` @.{ { { [ [ [ ] ] ] _ ( A m r r r r a J J J J H K S A c 0 0 0 0 4 = @ @ + 6 1.6X5X5X",
"5X5X5X5X5X6X*.* o o o o $ w c c c c c c B V ( [ { +.@.$.$.$.$.@.{ { { [ ) P m r a J H K S F U A c 0 0 0 0 4 = # @ @ + q &X5X5X5X",
"5X5X5X5X5X6X=.2 o o o o o 2 e c c c c c c b B V C C / ( ) _ ` ` [ +.+.$.#.#. .S N S F U | O.1.! 0 0 0 0 4 = # # @ @ + y 5X5X5X5X",
"5X5X5X5X5X6X&X9 o o o o o @ % 9 c c c c c c c b n n B B B B V V V C C ( ) U D U E ..O.1.+X$X$X<.q 0 0 4 = # # # # # + K 5X5X5X5X",
"5X5X5X5X5X5X5Xe o o o o O @ @ @ * w c c c c c c r r r r c c b b b n n B U | O.1.+X+X+X$X$X+X+X+XJ 9 4 = @ @ # @ # # @ R 6X5X5X5X",
"5X5X5X5X5X5X5XK o o o o @ @ @ @ O % 2 e c c c c r r r r r r r r r r r m 1.$X$X$X$X$X$X$X$X$X$X$X~ 4 = @ # @ # @ # # = ..6X5X5X5X",
"5X5X5X5X5X5X6Xo.% o o o @ @ O @ @ @ o % 9 c c r r r r r r r r r r r r m <.$X$X$X$X$X$X$X$X+X<.^ J 3 @ @ # # # @ # # = o.6X6X5X5X",
"5X5X5X5X5X5X6X5Xr o o o O O O O @ @ @ @ @ * w r r r r r r r r r r r r r <.$X$X$X$X$X1.<.~ J a p q 3 # = # # @ @ @ @ 3 ^.@X;X6X5X",
"5X5X5X5X5X6X6X6X| o o O O O O O @ @ @ @ @ @ % % 1 4 9 9 e e e e r r r r <.$X+X<.^ T J a p p p p p 4 # = # # @ @ @ + < n.K.S.-X6X",
"5X5X5X5X5X5X5X6X2.9 o O @ @ O O O O @ @ @ O O @ @ @ @ @ @ % % % 1 4 4 9 R ~ J a p q t p p p p p p 6 @ @ @ @ # @ + > c.K.K.K.XX6X",
"5X5X5X5X5X5X5X5X6XP o X O @ O O O O @ @ @ @ o @ @ @ @ @ @ @ @ @ @ @ @ @ 6 p q q t t t t t t t p p 6 = @ @ @ @ + : V.L.K.K.K.].7X",
"5X5X5X5X5X6X6X7X*XO.% X X X O O O @ @ @ O O o @ @ @ @ @ @ @ @ @ @ @ @ @ 4 p q q q q q q q q q q p q = @ # @ + + f U.L.K.K.K.Z.*X",
"5X5X5X6X5X-XoX.X}.H.f . X X X O o @ @ @ O O @ @ @ @ @ @ @ @ @ @ @ @ @ @ 4 q q q q q q q q q q q q q 3 @ @ + + + q.U.L.K.K.K.A.*X",
"5X5X6X;XoXI.T.Y.Y.Y.f.+ X X X X X O o O O @ @ @ @ @ @ @ @ @ @ @ @ @ @ @ 4 p p q q q q q q q q q p p 3 @ + + + 3 C.I.K.K.K.L.].8X",
"5X5X%X{.T.T.Y.Y.T.T.n., . X X X X X X O O @ @ @ @ @ @ @ @ @ @ @ @ @ @ X 4 q q q q q q q q q q 6 4 3 # + + + = ~ {.P.K.K.K.L.`.5X",
"5X7XoXT.T.T.T.T.T.T.T.c.< + X X X X X X O o @ @ @ @ @ @ @ @ X X @ @ @ X 3 q q q q q q q 6 3 = + X X + + + = W *X.XP.K.K.K.L._.6X",
"5X-XI.T.T.T.T.T.T.T.T.T.P.t.: X X X X X X X X X X O O X @ X X X @ @ @ X 3 q q q 6 4 3 @ X X X X X X + # = W 5X*X}.L.K.K.K.m.#X6X",
"5X@XT.T.T.T.T.T.T.T.T.T.T.T.Q.m X X X X X X .       . . . . . X X O O O 3 6 3 = + X X X X X X X X X + = W 5X6X*XZ.K.K.K.K.Z.*X6X",
"5X@XT.T.T.T.T.T.T.T.T.T.T.L.@X5XW 4 X X X X . .                 . . . . X X X X X X X X X X X X X X @ W 5X5X5X5X`.J.K.K.K.@X6X5X",
"6X-XF.T.T.T.T.T.T.T.T.T.L.`.8X6X6X*.m X X X . . . .     . . . . . . . . . X X X X X X X X X X X X = R 5X5X5X5X6X#Xc.J.K.].*X5X5X",
"5X5XXXP.T.T.T.T.T.T.Y.L.Z.;X6X5X5X6X5X..4 X . . . .     . . . . . . . . . X X X X X X X X X X % m o.5X5X5X5X5X5X5X-X_._.*X6X5X5X",
"5X6X*X`.m.L.Y.L.K.K.N.XX%X6X5X5X5X5X5X6X=.K X   . .       . . .     . . . X X X X X X X O % r o.5X6X5X5X5X5X5X5X5X6X6X6X6X5X5X5X",
"5X5X6X*X#X'.Z.A.`.XX#X5X6X5X5X5X5X5X5X5X6X5XX.e O . . . . . . .     . . . X X X X O 1 m W *.5X6X5X5X5X5X5X5X5X5X5X5X5X5X5X5X5X5X",
"5X5X5X6X6X6X8X7X5X6X5X5X5X5X5X5X5X5X5X5X5X5X6X&X| N r 9 1 % o o . . . . . O % 9 K ..=.5X6X6X5X5X5X5X5X5X5X5X5X5X5X5X5X5X5X5X5X5X",
"5X5X5X5X5X5X5X5X5X5X5X5X5X5X5X5X5X5X5X5X5X5X5X6X6X6X5X&X=.o...W K y 9 % 7 K o.2.6X6X6X5X5X5X5X5X5X5X5X5X5X5X5X5X5X5X5X5X5X5X5X5X"
};
