/* XPM */
static char *_cbb0873725c41c290b4a68254b8835dMXtTYERHDLxeHayX[] = {
/* columns rows colors chars-per-pixel */
"64 64 245 2 ",
"   c #362E3F",
".  c #3E323E",
"X  c #7C4B3E",
"o  c #342D44",
"O  c #332D4B",
"+  c #352A4C",
"@  c #353244",
"#  c #353F47",
"$  c #32314D",
"%  c #333B4B",
"&  c #3A3D49",
"*  c #2D2759",
"=  c #2F2E5B",
"-  c #312E53",
";  c #302D59",
":  c #2F3657",
">  c #2F335C",
",  c #2E395D",
"<  c #313154",
"1  c #363956",
"2  c #303159",
"3  c #2D2E63",
"4  c #2C2E6C",
"5  c #2D3463",
"6  c #2C3A64",
"7  c #2C356B",
"8  c #2B3A6C",
"9  c #343763",
"0  c #312F72",
"q  c #2A3672",
"w  c #293C73",
"e  c #28347B",
"r  c #273D7C",
"t  c #283B7A",
"y  c #453A48",
"u  c #593C48",
"i  c #683748",
"p  c #763649",
"a  c #344047",
"s  c #354048",
"d  c #39454F",
"f  c #2E445C",
"g  c #344554",
"h  c #36455A",
"j  c #2D4468",
"k  c #2A426C",
"l  c #394368",
"z  c #385764",
"x  c #294374",
"c  c #26427B",
"v  c #284778",
"b  c #314677",
"n  c #2A5476",
"m  c #345574",
"M  c #2E6B77",
"N  c #306B7A",
"B  c #554046",
"V  c #434858",
"C  c #794740",
"Z  c #47536A",
"A  c #864F3F",
"S  c #83503E",
"D  c #8C543E",
"F  c #92563E",
"G  c #96593E",
"H  c #9C5E3E",
"J  c #874F40",
"K  c #263786",
"L  c #253F83",
"P  c #24368E",
"I  c #1F4F96",
"U  c #1E4D9B",
"Y  c #1F5395",
"T  c #1E529D",
"R  c #1F5A9C",
"E  c #254383",
"W  c #244A84",
"Q  c #23438B",
"!  c #224B8C",
"~  c #265788",
"^  c #365384",
"/  c #224593",
"(  c #214A93",
")  c #21429A",
"_  c #214C9C",
"`  c #235394",
"'  c #245A93",
"]  c #215299",
"[  c #225B9B",
"{  c #335697",
"}  c #1E649E",
"|  c #296F8D",
" . c #356789",
".. c #3B7785",
"X. c #256895",
"o. c #3A6B99",
"O. c #377694",
"+. c #1D4BA3",
"@. c #1F4AA5",
"#. c #1D52A3",
"$. c #1D5BA3",
"%. c #1C54AC",
"&. c #1C5AAC",
"*. c #1A4EB3",
"=. c #1A5AB6",
"-. c #2149A4",
";. c #324CAF",
":. c #2054A6",
">. c #1C67A9",
",. c #1F75AC",
"<. c #1B67B8",
"1. c #1C77B7",
"2. c #2F6FAF",
"3. c #3C66A4",
"4. c #2579A8",
"5. c #495A98",
"6. c #4D748A",
"7. c #4768AD",
"8. c #1859C8",
"9. c #185FD2",
"0. c #3648C9",
"q. c #1767C3",
"w. c #1877C5",
"e. c #166BD4",
"r. c #1477D8",
"t. c #2462C2",
"y. c #3B79D6",
"u. c #1C7FED",
"i. c #4E73CF",
"p. c #5C6FDE",
"a. c #368B98",
"s. c #1E89B1",
"d. c #3190AC",
"f. c #2688BC",
"g. c #35A5B9",
"h. c #33B1BA",
"j. c #4A888F",
"k. c #4D8D98",
"l. c #598A98",
"z. c #678C92",
"x. c #4B8CAA",
"c. c #449BA6",
"v. c #6183AB",
"b. c #50ADB7",
"n. c #69B1BC",
"m. c #1A87C8",
"M. c #1B95CC",
"N. c #1686D7",
"B. c #1899D9",
"V. c #2788C8",
"C. c #2E8BCC",
"Z. c #3999C5",
"A. c #3197D4",
"S. c #1BAFD2",
"D. c #1CAAD7",
"F. c #2CAACA",
"G. c #34A7CA",
"H. c #26A1D6",
"J. c #37B9DC",
"K. c #149AE6",
"L. c #1394F1",
"P. c #2096E4",
"I. c #16ACE7",
"U. c #16B3F2",
"Y. c #30AFEB",
"T. c #24BEE3",
"R. c #5495DB",
"E. c #6793CB",
"W. c #46A9CA",
"Q. c #4EB2CD",
"!. c #6DB5D3",
"~. c #5596EB",
"^. c #658EF2",
"/. c #57AAE7",
"(. c #50B7F0",
"). c #6EB3ED",
"_. c #19CAE7",
"`. c #16C6F7",
"'. c #1CD9FB",
"]. c #24C8E8",
"[. c #33CEED",
"{. c #26D9E5",
"}. c #3ACCFA",
"|. c #2BD7FB",
" X c #33DDF8",
".X c #26EAFB",
"XX c #38E9F6",
"oX c #29F6FF",
"OX c #55C8D9",
"+X c #50D3D8",
"@X c #68C5CB",
"#X c #68CAD9",
"$X c #75D5D9",
"%X c #51D1F1",
"&X c #68DAE3",
"*X c #78D9E5",
"=X c #6ECEF2",
"-X c #5AE3E7",
";X c #47EAF9",
":X c #5AEBFB",
">X c #47F5FE",
",X c #55F8FE",
"<X c #63E9EB",
"1X c #78E4EA",
"2X c #67E8F9",
"3X c #77E7F7",
"4X c #66F4FC",
"5X c #63FCFF",
"6X c #6BFDFE",
"7X c #76F7FD",
"8X c #7CFDFD",
"9X c #8ABED8",
"0X c #89B3F2",
"qX c #91D3D7",
"wX c #AACED6",
"eX c #8BD4EB",
"rX c #85DBF7",
"tX c #95D8F9",
"yX c #AADAEE",
"uX c #AFD5F9",
"iX c #88E6EC",
"pX c #97E3EF",
"aX c #89E8FB",
"sX c #97EAF9",
"dX c #84F5FB",
"fX c #8AF5F9",
"gX c #84FDFE",
"hX c #8BFCFF",
"jX c #96F2F8",
"kX c #9BF4FD",
"lX c #93FEFF",
"zX c #9BFCFE",
"xX c #ABE9ED",
"cX c #A5E8FA",
"vX c #B9EEFF",
"bX c #A8F4FA",
"nX c #A4FCFD",
"mX c #ACFBFE",
"MX c #B9F5FB",
"NX c #B3FCFE",
"BX c #BCFBFF",
"VX c #C6F4F5",
"CX c #C4FFFF",
"ZX c #CAFCFF",
"AX c #D8F5FE",
/* pixels */
"                                                $ h V V V o.y.0.E.#Xc.o. .h g : $       o         o                             ",
"                                          * 9 Z x.$XqX$XqXpXsXtXkXgXjXiX*X&XOXA.o.z f o         o o                             ",
"                                      2 Z i.^.xXjXZXnX5X,X-X#X;X,X>X:X:X:X7XlXmXfX1X!.6.m ;                                     ",
"                                  g a.E.tXdXhXlX7X%XW.T._.S.[ ,.S._.s.N.V.g.%XaXhXNXAXMX=X2., o o                               ",
"                            @ & j.n.dXCXmX,XoXD.M.>.6 &.r.N.! c ' 1.k k : 1 >.V.T.>XhXhXlXsXQ.;.K $                             ",
"                          @ 6.!.jXhX7X4X>X'.I.$.( W Q %.#.E : x ( ( c < @ 6 : , ~ I.U.`. XhXNXtX/.O.%                           ",
"                      o 2 ..iXCXgX;Xh.4.`.m.$.T U E E w , $ Q =.( ( > > 6 ] c 6 6 w.D.1.M..X,X2XhXiXk.h @                       ",
"                      1 i.1XzXiX}.m.j W m.w.%.U ( Q 6 Q 8 8 Q E 8 -.8 7 w 8 6 Q : c :.e.w.U.K.L.=XNXbXOX .@                     ",
"        o o       o l l.pXfX%XV.<.$.#.#.] ` q.( w r w E 5 6 > $ @ 5 7 8 r w 6 w $ 8 ( %.<.<.q.r.4.OXmXmX*X .@                   ",
"        o o       M !.sX6X|.1.&.! %.&.` :.` ( 8 w r 7 > 8 7 $     $ q r L 5 < < $ < 8 7 w c &.&.x n W.3XmX&X..@                 ",
"              @ M +XNXsXY.N.q.#.( U E 8.=.w Q 5 6 7 6 8 q q < o $ 7 > > 7 7 O @ < $ 7 :._ Q 6 6 k 8 ] C.2XhX&XN o               ",
"            o m +XlX7XZ.[ >.U U c w / 9._ > > 8 6 $ 5 5 < 7 5 > q 7 o $ < 7 7 $ < < Q 8.e./ < ( %.v x R {.lXqXx.m               ",
"          o x R.dX1XG.n W v : c Q E / =.w < $ > 7 5 5 > < o < 5 < O O < > q > 2 t t P K -.8 8 8 w ~ N.w._. X3XxXl.%   o o       ",
"          % Z.3X2XG.X.x E w r Q 5 L Q 5 5 > 2 > > < O < 5 - $ 2 O o 5 5 - q 7 < 6 t 6 > 7 $ @ < 6 x <.e.s.>.W.bXiXO.@           ",
"        o | -X8XXX`.M.! w / / L > 8 5 5 7 > > < 2 - O - 5 5 O 2 2 O 2 5 - O < 5 > q 7 < 5 $ o 5 8 6 8 Q k I ~ Q.gX*Xa.%   o     ",
"        % h.hX7X].s.~ w : w r 6 > 5 6 6 5 > > > > - > > - 2 O ; - O - < - O - > > > < O - < > r 5 : > w c T ( | $XNXOXg         ",
"        ..<XkXY.K.m.` +.E 6 : < 6 < < > < < O > 5 > ; O - - - - - = 3 O - O o < > O o O > > > 8 $ $ $ 8 Q T =.Y Z.cXjXa.@       ",
"      d n.lX2Xw.<.[ x E E Q r 7 > $ < 5 < o o O O - O o - - - = = - ; O - - O O O   o O < 2 8 5 o o < w Q <.&.! ' R.kXOX,       ",
"    < v.VXzXG.$.I 8 Q 8 6 8 < 5 2 > < > - O o o o o o o o O - ; - O - - O O O - O o o o o O 2 > $ < w +.r 6 < : v 2.sX3XO.      ",
"    b ).AX=X,.` c c w < 8 <   o O O o o O = - O O O o O O o o O O O O O o o O - o O - - o O < < > 7 5 Q > 2 6 v ~ ~ -X8XQ.f     ",
"  O 2.aXBXW.w.f., > : $ 8 > o O o       o o O O O O o - - o o o o O O O o o O O o O 2 - O < < o < q > > @ o 6 1.f.~ ].6XaXO.    ",
"  O 3.jX4Xm.<.>.Q w 6 < 7 t q > O o o o o o o O - - O o O O o o   o o o o o O O o O - o - - O > 5 5 < < < $ 6 1.>.>.`.>XmXE.9   ",
"  h !.zXJ.1.q.c 8 6 5 6 q 8 5 O = 5 7 O o o o O O - O o O + o o o o o o o o o o o o O o o o o < 5 $ o o $ 7 > 6 <.D.U.|.mXrXm   ",
"@ ..xXzXF.1.m.j < 6 5 < 6 q 2 O O 5 7 O o o o O o O O o o o o o o o o o O o o O O O o o O o o O o O o   $ < @ < [ n ~ A.zXjX6.O ",
"% W.BX8XI.T T 8 : r 6 $ 5 K 5 O o - = O o O o O O o O O O o o o o o O o o o + - O o o   O - o - > 5 < o 8 6 o $ , , c 2.:X7Xy.5 ",
"& !.BX;XK.#.c : $ 8 r 5 5 K 5 o o O - - o o O O o o o o o o o o o o o O O + - - O o o o O O O - 5 > > < t 6 > o 6 8 ] L. XhX/.j ",
"y wXCX}.r.T 8 w < < > > 5 < O o o - - O o - - o o o O O o o o o o o o O - + O O O o o O O O o O O O > > 6 L L 8 / ! x 4..XzX&Xz ",
";.uXNXG.Y c : 7 q < $ < O o o - ; - - O O = - o o o O O O O o o o o o o o o o O O O o O - O O o o o O O $ > 6 8 Q Q c n T.gX*Xz ",
"C.cXjXg.~ 8 w 8 $ < < 5 < < O O O - - o O - - O o O O o o o O o o o o o o o o O o O O - ; - O o o o o o $ 5 6 $ 8 c E n D.;X*XZ ",
"H.dX3XB.r.#.%.Q > > 6 > < < O o o O o o O - + o O O O o o O O o o o o o o O o o O o o O - O O o O o O O < 5 q 8 ( ( ( n m.%XpX5.",
"+XnXhXD.$._ _ Q 6 $ 5 = O O O o o o o O O O o o o o o o o o o O + o o o o O O O o o O - - O O O O O O < 8 6 > L +.x > W m.%XkX/.",
"@XnXqXX.W x < : 8 7 6 O o o o O o o - O o o o   o o o o O o + * * O o o o o o - + o o - - - O - - > < < 2 > 6 ) Q ' x W B.3XnX[.",
"6.eX@X~ #.8 > w L > < $ $ o o - - O ; O o o o o o o o O O o + * * O O o o o o O o o o o - - - - O > 7 5 < < 8 t t ` ( T I.7XaXu.",
"x.cX:Xs., , 8 / L < > $ > 2 > - O o O o o o O O o o o o O o o + + o o O O o o o o o o o O O O o O o > > 6 6 < 5 E r x W :.#XtX0.",
"y.cX2Xm.` c $ 5 5 5 5 2 < > 5 O 3 O O O o o o o o o o o O O o o o O o O O o O O - + o o O O O O - O > < 6 t 5 o : w T <.~ @XpXo.",
"{ yXrXr.e.` , w 8 5 < < < 7 7 o - O ; - o o o o o O o o O O o o o o o O o o + - - O o o o O ; o O > 2 q q ) -.: 8 ( ( <.d.dXvXY.",
"{ yXaXf.c x x > 6 8 < < O > < O o O ; O o o o o o O O o o O O o O o o o o O - - O o o o o o O o O 2 > 7 > t ) +./ +._ <.P.3XyX5.",
";.tX8Xg.c $.] < 8 r r q < O - > - o O O - O O O o o O o o O O O O O o o o O O O O o - - O O o o 5 7 O < 6 7 L / r ( E ` Y.7XiXZ ",
"9 #XnXb.! q.c 6 r r > > 5 5 5 > = = O - - - ; ; o o + O o O o o o o O o o o o O - O O O o o o o 7 q O < t q Q *.U 8 c ~ (.nX@Xh ",
"% Q.ZX!.c c E / w 8 < $ 7 > 2 7 > O o O O O - - o O - + o o o o o o o O o - ; + O O O o o o o O O O o O > t @.8.Q : ! <.).MX6.$ ",
"< A.kX=X4.j U E 5 8 : o $ $ < 5 O o o o o o O O O O O O o + + o o o O o o - ; O O o O O O - < O o $ $ < 6 E :./ 8 : &.B.aXuX7.- ",
"@ X.%XhXJ.Y ( 8 > < $ : < O o > - - o o o o O O o O O o o O O O o o O O O - O O O o O O O O - < O < $ o < 6 w < $ : =.B.fX0Xb   ",
"  h =XCX!.$.&.<.' 8 w 6 < o $ 5 - O o o o O O o o O o o o o o O O o O O - - O O o o O - - o o O O $ < $ t _ w 8 8 ` N.%XnX#Xj   ",
"  2 C.cXpX4.&.e.&.+.Q > 6 q 6 $ O $ o o O - O O O O o o o o o o O O O O O - O O o o o - = 5 - O O < < > 5 Q w c [ >.K.4XsXx.%   ",
"  o b !.NXW.W v , E 8 o : P r < < > - - > 3 3 4 3 O o o o o o O O O O O O - O O O O O - O O < 2 $ o o o o 6 +.#.v 1.H.4X/.0     ",
"    @ k.nX3X4.n v ( w t 8 6 5 > > > < < O ; - q P ; O o o o - - O O O O O - - - - O O 2 O o O $ o     o > 8 ( T R M.:X6Xc.o     ",
"      z qXfX(.S.M.>.E *.Q : > 5 6 5 5 < o < O 5 K 3 o O o O ; O o - - - O - ; = - o - - O o $ < $ o < 6 ( Q ( <.D.:XnXrX3.      ",
"        k.zXhX.X`.s.c %.w 8 r > > 7 q < O O o O - O O O = ; O O - - O = = 3 O o o o < O o o < 7 t > < > / c #.L.|.zXAXp.9       ",
"        E (.lX,X.XS.! #.Q L 5 < : < 5 < > > < O O   O O 7 = O - - - - = 7 e 5 - o o > < $ O < t L w < $ Q x ~ w.%XmX9Xl         ",
"o       $ d.7X6XoX_.~ E %.w o $ $ < < O > 8 5 > O o O > 5 ; O - 5 - - - 5 e 5 O $ < 5 < O o $ 8 ) +.8 8 :.X._.XXdXxX5.o         ",
"o         g b.bXhX[.} U =.6 o $ o $ 6 > > 2 < > O o 5 5 o o o O < < < 5 8 7 5 5 6 > < < O $ 8 q Q w 6 ` $.B.oX5XnXn.h           ",
"o           z 1XCXdXf.! ( , 8 $ o < : > $ $ > < < > < > O < o < < < < 5 > 5 > 7 8 5 < $ > : w 8 w 5 c <.K.U.4X8XQ.V             ",
"            % a.3XMX*XZ.1.R &.< < E 6 $ o $ : o < > < 7 $ $ o < 5 < 5 < < < o > 8 2 > o 5 r w c E E #.e.Y.3XmX=X^               ",
"              % 3.0XlX2XH.w.,.1 c Q 8 8 : $ < o 8 6 6 q 6 $ o < 7 5 t q q 7 q w w 5 < $ < c Q 8 , : k  .eXZXdXd.<               ",
"                O o.eXNX2X].S.N 6 < 8 _ c : o $ 8 6 > 5 6 w 6 8 w 7 < > 8 r / q @.w 6 w ( x ( ! 8 f a.*XVXbXg.g                 ",
"                  $ 7.tXCXdX;Xa.I 6 ~ r.%.( < o $ < < O 8 Q w : : < $ $ w / Q / +.Q 8 > &.[ R R | F.3XmXdXb.g                   ",
"                    % O.0XBXNX!.t.#.>.1.=.8.! ~ 6 o w r r r E 7 t E $ < w +./ 9.%.U ( : ( &.D.S.XX6XzX=Xd.g                     ",
". . . . . . . . . . . + ;.~.bXMX=XJ.H.q.<.#.T q.Q $ c U ( Q Q E +.( 8 6 E <.N.r.=.#.! >.B.S. X,X6X,XQ. .1 . . . . . . . . . . . ",
"X S D D D D D D D X C i 1 b 7.).kXnX4X|.].m.X.,.[ [ &.q.=.q.T W k j W T #.<.L.r.w.K.w.N.|.8XzX6X%XV.z y i X X D S D D D D D D D ",
"F H H H H H H D D D J y # # 1 ;.~.jXhXlXgX;XF.| X.R $.R &.&.<.<.~ W 1.N.r.1.L.N.B.'.}.rXkXvXtXJ.N f # & B A D D G H H H H H H H ",
"H H G F H H H G G D F i & a a 1 m h.-XzXmXCXfX<XJ.a.| 1.w.>.} D.B.s.B.m.K.U.`.|.:X6XzXCXxXE.0.b a # a y p F D G H H H H H H H F ",
"H H H G H H H H H G J p y a a # s g M g.b.eXuXZXnXfX2X:X%X(.W.OX:X:X>XXXXX5X5X5X7XkX0Xn.j.g 1 # # s a y p D G H H H H H H H F D ",
"H H H H H H H H H F J u & a s s # # s s g  .3./.%X3XMXbXMXbXnXBXmXBXmXmX7X8X3XW.c.c.{ g s # a a s a a & u A F H H H H H F F D A ",
"H H H H G H H H H D D u & a s s s s # # # # 1 ! X.O.z.l.z.n.2X2X(.^.^.E.k.a.O.v # # # # # # s s s a a & i D D H H H H H G F D D "
};
