/* XPM */
static char *db33a5977d9346bd9881a7f5ed64e37akdBwdsnZZ0Z5BDq2[] = {
/* columns rows colors chars-per-pixel */
"64 64 74 1 ",
"  c #1A7A3E",
". c #1A793E",
"X c #197E3B",
"o c #149B2F",
"O c #13A02D",
"+ c #19793E",
"@ c #21823C",
"# c #51B836",
"$ c #59C134",
"% c #59C135",
"& c #50BC34",
"* c #1CA32E",
"= c #139F2D",
"- c #51B835",
"; c #197E3C",
": c #5AC234",
"> c #5AC134",
", c #51BD33",
"< c #1CA42E",
"1 c #187D3C",
"2 c #5AC135",
"3 c #19783E",
"4 c #21813C",
"5 c #1A7E3C",
"6 c #1B9E30",
"7 c #1B9F30",
"8 c #19823A",
"9 c #1F853B",
"0 c #4AB136",
"q c #49B435",
"w c #159731",
"e c #18813A",
"r c #169831",
"t c #20813C",
"y c #1A7B3D",
"u c #27883B",
"i c #4BB136",
"p c #51BD34",
"a c #49B833",
"s c #20823C",
"d c #187E3B",
"f c #4AB036",
"g c #50BD34",
"h c #187E3C",
"j c #59C234",
"k c #20863B",
"l c #1F863A",
"z c #159C2F",
"x c #27893B",
"c c #4AB534",
"v c #50BD33",
"b c #1C9F30",
"n c #49B534",
"m c #1BA22E",
"M c #1A7A3D",
"N c #187D3B",
"B c #22A62F",
"V c #1BA32E",
"C c #1A7F3C",
"Z c #4AB435",
"A c #129F2D",
"S c #197D3C",
"D c #197A3D",
"F c #1F853A",
"G c #4AB535",
"H c #58C035",
"J c #57C034",
"K c #23A72F",
"L c #149F2E",
"P c #20863A",
"I c #18823A",
"U c #149A2F",
"Y c #4AB933",
"T c white",
/* pixels */
"  .XoOOoX.+@#$%&*=OoX..XoOOoX.    +@-$$#@++@#$$-@+    +@#$$-@+  ",
"  .XoOOoX.+@#$%&*=OoX..XoOOoX.    +@-$$#@++@#$$-@+    +@#$$-@+  ",
"  .XoOOo;.+@-:>,<OOo;..;oOOo1++++ +@-2>#@++@#>2#@+ +++34-::-@+..",
"  +56<<78;190-#q6oowe;;ewoor9@@ty++tq,,qt++tq,,qt++yt@4ui--091XX",
"  +tq,pa7oor9@@s5X;ewoowe;d90--ft++56<<65++56<<65++tf--iu@@9rooo",
"  +@-22g<OOoh++++..;oOOo;.+@-::-@+.XoOOoX..XoOOoX.+@-j:-@3+doOOO",
"..+@-$%&*=OoX. ++++1oOOoX.+@-::-@+.;oOOo;..;oOOoh+3@#22#@+.XoO==",
"XXhk-$%&*=OoX.+yt@@lzOOoX.+tf--09h;ewoowe;;ewoor9@@xcvvqs++56<**",
"ooob&%%&*=OoX.+tf-#nm=OoX.+Mt@@9roowe;;ewoowe;N90-#cBV<6C++sZ,&&",
"OOO<&%%&*=OoX.+@-:2v*=OoX. ++++hoOOo;..;oOOo;.+@-:2vVAOoX.+@#>%%",
"OOO<v22vVAOoX.+@#>2p<OOo;.... .XoOOoh++hoOOoX.+@#>2p<OOoh+3@#>%%",
"ooo6q##cBV<65++tq,pa7oowe;XSD..XoOOzF@@9roowS.+tq,pa7oor9@4xG,&&",
"XXX5s@@xcvvqs++56<<78;;ewoowS..XoO=mn#-09hXSD.+56<<78;h90-#GBV**",
"...+++3@#22#@+.XoOOo;..;oOOoX..XoO=*,>:-@+... .XoOOo;.+@-:>vVA==",
"   ...+@-:j-@+.XoOOoX..XoOOo1++1oOAVv>:-43+++++hoOOod+34-:>,<OOO",
"  .DSXh90--ft++56<<65+.Swoor9@@kb<VBG#-iu@@@@@@9roor9@@ui-#q6ooo",
"  .Swoor9@@ty++tq,,qt+.DSXh90-#-&&vGx4@ui------09hh90--iu@@t5XXX",
"  .XoOOoN++++ +@#2>#@+ ...+@-:$$%%>#@33@-:$$$$:-@++@-j:-@3+++...",
"+++1oOOoX. ...+@-::-@+... +@#>%%$$:-@++@#2%%%H$-@++@#22#@3+++...",
"@@@9roowS..DSXh90--09hXSD.+sqvg&-#-09h1Fnv&pJ%$-@++sqvvcx@@s5XXX",
"---09NXSD..Swoor9@@9roowS.+56<<bk@@9roozm*VKp%$-@++56<VBc##q6ooo",
"$$j-@+... .XoOOoh++hoOOoX..XoOOo1++1oOOO==AV&%$-@+.XoOAVv22v<OOO",
"%%>#@+ ++++doOOo;..;oOOoh++hoOOoh++1oOOOOOO<p2>#@+.;oOO<&%%&<OOO",
"&&,Zs++Mt@@9roowe;;87<<bk@@FzOOzF@@9roooooo7ap,nFN;ewoob&%%&booo",
"**<65++tf--09h;ewoo7ag&&-##nm==mn#-09hXXXX;87<*mzoowe;hk-$$-khXX",
"==OoX.+@-:j-@+.;oOO<p2%%$$>,*==*p>:-@+.....;oO==OOOo;.+@#$$-@+..",
"OOOoX.+@#22#@+.XoO=*,>$$%%2p<OO<p>:-@+.++++doOOOOLOoN+34#>2#@+..",
"ooowS.+sq,vqs+.XoO=mn#--&&pa7oo6q--09dX5s@@9roooLOOzF@@xGv,nFhXX",
"XXXSD.+C6<<65+.XoOOzF@@Pb<<78;X5t@@9roo6Z#-091;IoO=mn##GBV*mzooo",
"..... .XoOOoX..XoOOo1++NUOOo;..++++1oOO<,>j-@+.;oO=*,>>,VA==OOOO",
"   ++++hoOOoX..XoOOoX..XoOOoX. ....;oOAVp2>#@+.XoOO<p22p<OOO====",
"  +yt@@9roowS..SwoowS.+56<<65+.DSX;87<VBYppqs+.Swoo7appa7oozm***",
"  +tf--09hXSD..DSXXSD.+tqppqt+.Swoo7appYBV<65+.DSX;87<<78;1Fnp&&",
"  +@-::-@+...  ...... +@#>>-@+.XoOO<p22gVAOoX. ....;oOOo;.+@#>%%",
"  +@-2>#@+ ......  +++34#>2#@+.;oO=*,>>v<OOoh++++ .XoOOoX.+@-:$$",
"  +tq,,qt+.DSXXSD.+yt@4xGv,nF1;IoO=mn##q6oor9@@tM++56<<6C++tf-##",
"  +56<<65+.SwoowS.+tf-#cBV*mzoooLOOzF@@s5Xd90--ft++sqv,qs++yt@@@",
"  .XoOOoX..XoOOoX.+@-j2,VA==OOOOOLOoh++++.+@-::-@++@#22#@+ +++++",
"+++1oOOoX..XoOOo;.+@-$%&<OOO====OOOod++++ +@#>2#@++@-j:-@+......",
"@@@9roowS..Swoowe;hk-$%&bUozm**mzoor9@@tM++tqvvqt++tf--09hXXXXXX",
"---09NXSD..DSX;ewoob&%$-PNNFn,,nFNN90--ft++56<<65++Mt@@9rooooooo",
"$$:-@+...  ....;oOO<&%$-@++@#>>#@++@-::-@+.XoOOoX. ++++NoOOOOOOO",
"$$j-@+.++++++++hoOO<&%$-@++@-jj-@++@-jj-@+.;oOOoh++++ .XoO==OOOO",
"---09NX5t@@@@@@9roob&%$-PNN90--09dd90--09d;ewoor9@@tM++56<*mzooo",
"@@@9roo6q#####-09h1k-$%&boor9@@9roor9@@9roowe;h90--ft++tqvvnFhXX",
"+++1oOO<,>$$$$:-@++@-$%&<OOo1++hoOOod++hoOOo;.+@-::-@++@#>2#@+..",
"+++1oOAV,>$$$$:-@++@-j>,VAOo1++hoOOo;..;oOOoh+3@-::-@++@#>2-@+  ",
"@@@kb<VBG#-----09hh90-#GBV<bk@@9roowe;;ewoor9@@ui--ft++tq,,qt+  ",
"--#-&&vGx4@@@@@9roor9@4xGv&&-#-09h;ewoowe;h90--iu@@tM++56<<65+  ",
"$$$$%%>#43+++++hoOOod+34#>%%$$:-@+.;oOOo;.+@-::-@3+++ .XoOOoX.  ",
"%%H%%%>#@+ ++++1oOOo1+34-:$$%%>#@+.XoOOo;.+@-::-@3+++++NoOOo1+++",
"%%%Jp&vqt++yt@@FzOOzF@@ui-#-&gvqt+.Swoowe;h90--iu@@@@@@9roor9@@@",
"%%%pKV<65++tf-#nm==mn#-iu4@kb<<65+.DSX;ewoor9@4ui------09NN90---",
"%%%&VAOoX.+@-j2,*==*,>:-@3+1oOOoX. ....;oOOoh+3@-:$$$$j-@++@-j$$",
"%%2p<OOo;.+@-:2,*==*,>:-@+.;oOOoh++++..;oOOoh+34#>%%$$:-@++@#>%%",
"&&pa7oowe;N90-#nm==mn#-09N;ewoor9@@t5X;ewoor9@4xG,&&---ft++sZ,&&",
"**<78;;ewoor9@@FzOOzF@@9roowe;h90-#q6oowe;h90-#GBV<bP@@ty++56<**",
"==Oo;..;oOOoh++1oOOo1++NoOOo;.+@-:>,<OOo;.+@-:>vVAOoN++++ .XoO==",
"OOOod++hoOOo;..;oOOo;..;oOOo;.+@-:2,<OOo;.+@#$%&<OOod++++..;oOOO",
"ooor9@@9roowe;;87<<78;;ewoowe;d90--q6oowe;1k-$%&boor9@@s5X;ewooo",
"XX190--091;ewoo7appa7oowe;;ewoor9@@t5X;ewoob&%$-k1190-#Z6oowe;XX",
"..+@-::-@+.;oOO<p22p<OOo;..;oOOoh++++..;oOO<g%$#@++@-j>,<OOo;...",
"  +@-$$#@+.XoO=*&%%&*=OoX..XoOOoX.    .XoO=*&%$-@++@-$%&*=OoX.  ",
"  +@-$$#@+.XoO=*&%%&*=OoX..XoOOoX.    .XoO=*&%$-@++@-$%&*=OoX.  "
};
