/* XPM */
static char *_015195e1857455b928608115d09977fbXvuwLBIBP26jBhH[] = {
/* columns rows colors chars-per-pixel */
"64 64 147 2 ",
"   c #010101",
".  c #0C0101",
"X  c #070808",
"o  c #0B0B0B",
"O  c #130000",
"+  c #1B0000",
"@  c #140B0B",
"#  c #190B0B",
"$  c #0F1111",
"%  c #131313",
"&  c #1B1313",
"*  c #171818",
"=  c #1C1C1C",
"-  c #230000",
";  c #2C0202",
":  c #2E0B0B",
">  c #310000",
",  c #3C0000",
"<  c #241313",
"1  c #291111",
"2  c #231A1A",
"3  c #2C1D1D",
"4  c #3B1818",
"5  c #242424",
"6  c #282121",
"7  c #272828",
"8  c #2C2C2C",
"9  c #342F2F",
"0  c #343434",
"q  c #3A3A3A",
"w  c #430000",
"e  c #4C0303",
"r  c #540101",
"t  c #5C0101",
"y  c #640000",
"u  c #6D0000",
"i  c #680C0C",
"p  c #740000",
"a  c #7A0000",
"s  c #6D1111",
"d  c #454545",
"f  c #4A4141",
"g  c #4B4B4B",
"h  c #524A4A",
"j  c #545454",
"k  c #575858",
"l  c #5C5C5C",
"z  c #636363",
"x  c #6B6B6B",
"c  c #737373",
"v  c #7D7D7D",
"b  c #820000",
"n  c #8B0000",
"m  c #9D0000",
"M  c #A00000",
"N  c #AD0000",
"B  c #B40000",
"V  c #BD0000",
"C  c #C20000",
"Z  c #CB0000",
"A  c #D00000",
"S  c #D20000",
"D  c #D30000",
"F  c #D40000",
"G  c #D30000",
"H  c #D80000",
"J  c #D90000",
"K  c #DA0000",
"L  c #DB0000",
"P  c #DD0000",
"I  c #DE0000",
"U  c #DF0000",
"Y  c #DD0000",
"T  c #E00000",
"R  c #E10000",
"E  c #E10000",
"W  c #B55A5A",
"Q  c #C06565",
"!  c #CF7373",
"~  c #D37777",
"^  c #D47979",
"/  c #808080",
"(  c #818181",
")  c gray51",
"_  c #838383",
"`  c #848484",
"'  c gray52",
"]  c #878787",
"[  c #828282",
"{  c gray54",
"}  c #8D8D8D",
"|  c gray56",
" . c #8D8D8D",
".. c #909090",
"X. c #979797",
"o. c #939393",
"O. c #989898",
"+. c gray60",
"@. c #9A9A9A",
"#. c gray61",
"$. c #9A9A9A",
"%. c #A09F9F",
"&. c #A1A1A1",
"*. c #A2A2A2",
"=. c #A4A4A4",
"-. c #A5A5A5",
";. c gray65",
":. c #A7A7A7",
">. c #A2A2A2",
",. c gray66",
"<. c #A9A9A9",
"1. c #ACACAC",
"2. c #AFAFAF",
"3. c #ABABAB",
"4. c #B1B1B1",
"5. c #B2B2B2",
"6. c gray70",
"7. c #B5B5B5",
"8. c #BBBBBB",
"9. c gray74",
"0. c gray75",
"q. c #BCBCBC",
"w. c #E88C8C",
"e. c gray76",
"r. c gray77",
"t. c #C5C5C5",
"y. c #C6C6C6",
"u. c gray78",
"i. c #C4C4C4",
"p. c #C4C8C8",
"a. c gray79",
"s. c #CACACA",
"d. c #CBCBCB",
"f. c gray80",
"g. c #CDCDCD",
"h. c gray81",
"j. c #CDCDCD",
"k. c #CED2D2",
"l. c #D0D0D0",
"z. c gray84",
"x. c gray91",
"c. c #EFEFEF",
"v. c #EFF3F3",
"b. c #F3F3F3",
"n. c #F4F4F4",
"m. c gray96",
"M. c gray95",
/* pixels */
") v ` v ) v ) v ) v v v v ) v ) v ) v ` v ` v ) v ) v ) v v ) v ) v ) v ) v ` v ` v ) v ) v ) v v ) v ) v ) v ` v ` v ) v ) v ` ",
"v ) v ) v ) v ) v ) v v ) v ) v ) v ) v ) v ) v ) v ) v ) v ) ) v ) v ) v ) v ) v ) v ) v ) v v v v ) v ) v ) v ) v ) v ) v ) v ",
"` v ) v ) v ) v ) v ) ) v ) v ) v ) v ) v ) v ) v ) v ) v v x x x x c x c x ) v ) v ) v ) v ) v v ) v ) v ) v ) v ) v ) v ) v ) ",
"v ) v ) v ) v ) v ) v ) v v ) v ) v ) v ) v ) v ) v ) v ) l o o o o o o X 8 v ) v ) v ) v ) v v v v ) v ) v ) v ) v ) v ) v ) v ",
") v ) v ) v ) v ) v ) ) v ) v ) v ) v ) v ) v ) v ) v ) ) l     . . . .   2 c c ) v ) v ) v v v v ) v ) v ) v ) v ) v ) v ) v ) ",
"v ) v ) v ) v ) v v ) ) v v ) v ) v ) v ) v ) v ) v ) v ) k   > B B B M y e % 8 c ) v ) v v v v v ) v v ) v ) v ) v ) v ) v ) v ",
"v v v v v v v v v v v v v v v v v v v v v v v v v v v v ) k   , L T T C b y . % x c v v v v v v v v v v v v v v v v v v v v v v ",
") v ) v v v v v v v v v v v v v v v v ) v ) v v v v v v ) k   , L U U L Z B y r & 8 c ) ) v v v v v v v v v v v v ) v v v v v v ",
"v ) v ) v ) v ) v v v v v v ) v ) v ) v ) v ) v ) v ) v ) k   , L U U U T C b u O % x v c v v v v v ) v ) v ) v ) v ) v ) v ) v ",
") v ) v ) v ) v ) v v v v ) v ) v ) v ) v ) v ) v ) v ) ) l   , L U U U U L Z B u r & * % 8 c ) v ) v ) v ) v ) v ) v ) v ) v ) ",
"v ) v ) v ) v ) v ) v v ) v ) v ) v ) v ) v ) v ) v ) v ) k   , L U U U U U U S b u O     @ x v v v ) v ) v ) v ) v ) v ) v ) v ",
"` v ) v ) v ) v ) v ) v v ) v ) v ) v ) v ) v ) v ) v ) ) l   , L U U U U U U L Z B y t t r < 7 c ) v ) v ) v ) v ) v ) v ) v ) ",
"v ) v ) v ) v ) v ) v v ) v ) v ) v ) v ) v ) v ) v ) v ) k   , Z S S F L L L L L Z b p p y O o x v ) v ) v ) v ) v ) v ) v ) v ",
"` v ) v ) v ) v ) v ) v v ) v ) v ) v ) v ) v ) v ) v ) ) l   . ; > ; w n n n n n n p p p p t r 2 7 x ) v ) v ) v ) v ) v ) v ) ",
"v ) v ) v ) v ) v ) v v ) v ) v ) v ) v ) v ) v ) v ) v ) k           + u u u u u u u p p p p u O o x v ) v ) v ) v ) v ) v ) v ",
"` v ) v ) v ) v ) v ) v v ) v ) v ) v ) v ) v ) v ) v ) ) l             + + + + + + + - u p p p t r 2 5 z ` v ) v ) v ) v ) v ) ",
"v ` v ) v ) v ) v ) v v ) v ) v ) v ) v ) v ) v ) v ) v ) k X                         . y p p p p u . X x v ) v ) v ) v ) v ) v ",
"` v ) v ) v ) v ) v ) v v ) v ) v ) v ) v ) v ) v z 8 8 8 d ) } &.O.` ) c x x x k g X   - > u p p y . X l ` v ) v ) v ) v ) v ) ",
"v ) v ) v ) v ) v ) v v ) v ) v ) v ) v ) v ) v ` d       q y.z.b.x.h.e.<.<.<.&.` x o     . y p p y . X x v ) v ) v ) v ) v ) v ",
"` v ) v ) v ) v ) v ) v v ) v ) v ) v ) v ) v l 7 j ` ) ) X.y.y.9.8.6.<.} } } { ) v k g q 0 ; > u p r e 3 0 x ` v ) v ) v ) v ) ",
"v ) v ) v ) v ) v ) v v ) v ) v ) v ) v ) v ` d   j a.a.a.a.y.9.:.:.:.O.v v v v v v ) v k g X . y p p p + X x v ) v ) v ) v ) v ",
") v ) v ) v ) v ) v v v v ) v ) v ) v ) v l 7 k ) x d d d d d d q q q 0 8 d v v v v v v c x q 9 ; > u p r e 3 0 x ) v ) v ) v ) ",
"v ) v ) v ) v ) v ) v v v v ) v ) v ) v ) d   k l.c                       = v v v v v v v v k g X . y p p p + X z v ) v ) v ) v ",
") v ) v ) v ) v ) v v v v v v ) v ) v ) ) g   = g x O.X.O...v v v v x g   X 8 0 l z z z z z k j q 9 ; ; y p +   z ) v ) v ) v ) ",
"v ) v ) v v v v v v v v v v ) ) v v v v ) d       z m.m.m.x.h.a.h.e.1.v X     o g k j j j j k k k g X   t p +   z ) ) v v v v v ",
"v v v v v v v v v v v v v v ) ) v v ) l 8 k v v v O.y.O.k c 6.6.6.1.:.} j g g d 7 = = 7 g k k k k j q 0 : ; .   z ) v v v v v v ",
") v ) v ) v ) v ) v v v v ) v ) v ) v d   k h.h.h.9.:.z   8 &.:.:.:.:.#.) ) ) x X     X g k k k k k k j %     X z ) v ) v ) v ) ",
"v ) v ) v ) v ) v ) v v v v ) v ) v ) d   j 8...z v <.z   8 &.} j x &.&...} ) c d q 8 8 8 8 j k k k k j %   q q c v ) v ) v ) v ",
") v ) v ) v ) v ) v v v v ) v ) v ) v d   g <.l   d <.z   8 :.v   8 &.:.<.#.) v ) v k g X X g k k k k j % X z ` v ) v ) v ) v ) ",
"v ) v ) v ) v ) v ) v v ) v ) v ) v ` d   g <.l   d <.z   8 :.v   8 &...k z } } ) v k g X X g k k k k j % X z v ) v ) v ) v ) v ",
"` v ) v ) v ) v ) v ) v v ) v ) v ) v d   g <.l   d <.z   8 :.v   8 &.v   8 %.&.) v k g X X g k k k k j % X l ` v ) v ) v ) v ) ",
"v ) v ) v ) v ) v ) v v ) v ) v ) v ` d   g <.l   d <.z   8 :.v   8 &.v   7 %.%.) v k g X X g k k k k g % X x v ) v ) v ) v ) v ",
"` v ) v ) v ) v ) v ) v v ) v ) v ) v d   g <.l   d <.z   8 :.c   8 &.v   7 &.&.) v k g X X g k k k k j %   k ` v ) v ) v ) v ) ",
"v ) v ) v ) v ) v ) v v ) v ) v ) v ` d   g <.l   d <.z   8 :.c   8 &.v   7 &.&.) v k g X X g k k k k j % X x v ) v ) v ) v ) v ",
"` v ` v ) v ) v ) v ) v v ) v ) v ) v g   g <.l   d <.z   8 :.v   8 &.v   7 &.&.) v k g X X g k k k k g %   k ` v ` v ) v ) v ) ",
"c ) v ) v ) v ) v ) v v ) v ) v ) v ` d   g <.l   d <.z   8 :.v   8 &.v   7 &.&.) v k g X X g k k k k g % X x v ) v ) v ) v ) v ",
"` v ) v ) v ) v ) v ) v v ) v ) v ) v d   g <.l   d <.z   8 :.v   8 :.v   8 &.&.) v k g X X g k k k k g % X l ` v ) v ) v ) v ) ",
"v ) v ) v ) v ) v ) v v ) v ) v ) v ` d   g <.l   d <.z   8 :.v   8 X.v 8 d X.X.) v k g X X g k k k k g % X x v ) v ) v ) v ) v ",
"` v ) v ) v ) v ) v ) v v ) v ) v ) v d   g <.z   d <.z   0 :.v   5 v v v v v v ) v k g X X g k k k k j % X l ` v ) v ) v ) v ) ",
"v ) v ) v ) v ) v ) v v ) v ) v ) v ` d   q } l * g } l * q { x = 0 x c c c c c c x q 0 = 5 g k k k k j % X z v ) v ) v ) v ) v ",
") v ) v ) v ) v ) v v v v ) v ) v ) / d   7 k k k k k k k k k k k k k k k k k k k g X X g k k k k k k j % X l ) v ) v ) v ) v ) ",
"v ) v ) v ) v ) v ) v v v v ) v / v ) k 5 0 q q q q q q q q q q q q q q q q q q q 0 X X 0 q q q q q q 0 X X z v ) v ) v ) v ) v ",
") v ) v ) v ) v v v v v v v ) ) v / v Q v d                                                               X z ` v ) v ) v ) v ) ",
"v v v v v v v v v v v v v v v v v v / v ) d   . - - - ; w w w w w w w w w , - +   . , w w w w , - - - - - - h k c ) v v v v v v ",
"v ) v ) v ) v ) v v v v v v v v ) v ) v ) d   > p p p m U L L L L L L L U C a y . + C L L L L Z a p p p p u + X z ) ) v ) v ) v ",
") v ) v ) v ) v ) v v v v ) v ) v ) v ) v k 5 4 r r r a C C V V V V V V C N a y . + Z U U U U F m n a p p u +   l ) v ) v ) v ) ",
"v ) v ) v ) v ) ) ) ) ) ) ) ) ) ) v ) v ) v ) d       > a a a a a a a a p p a y . + Z U U U U U U S b p p u + X z v ) v ) v ) v ",
") v ) v ) v ) z k l l l l l l l k l k l k l l 0   + , w r r r r r r r t p u r w   + Z U U U U U U S b p p u +   l ` v ) v ) v ) ",
"v ) v ) v ) v 0                                   t U b               + p t       - Z T U U U U U S b p p u + X z v ) v ) v ) v ",
"` v ) v ) x x 0 = = = = = = = = = = = = = = = = = s T n O .   X % % % 1 t e * %   + B Z U U U U U S b p p u +   l ` v ) v ) v ) ",
"v ) v ` v 0 X z #.O.O.O.O.O.O.O.O.O.O.O.O.O.O.O.@.W T B u e   5 c c c k . 2 c z X O p n F U U U U S b p p p + X z v ) v ) v ) v ",
"` v ) x x q 5 v 1.1.1.1.1.1.1.1.1.1.1.1.1.1.1.1.2.Q T B p r   5 v v ) l   = v x * # r u C Z U L Z C b p y t 1 * z ` v ) v ) v ) ",
"v ` c 7 X v 9.e.y.y.y.y.y.y.y.y.y.y.y.y.y.y.y.y.p.! U B p r   5 v v ) l   = v c j d o O p n F F n a p p + o z c ) v ) v ) v ) v ",
"` v ) 0 % c <.e.h.h.h.h.h.h.h.h.h.h.h.h.h.h.h.h.k.^ U B p r   7 ` { } z   5 ` ` x l 7 3 t u C C a p y t 1 % z ` v ) v ) v ) v ) ",
"v ) v v x 0 o O.b.c.c.c.c.c.c.c.c.c.c.c.c.c.c.c.v.w.U B p r   0 9.e.y...  8 8.e.9.9.8.%.& O p a a u O o z c ) v ) v ) v ) v ) v ",
"` v ) v ) 0 o { h.a.a.a.a.a.a.a.a.a.a.a.a.a.a.a.j.~ T N y e % d 6.7.8.{ % 0 7.9.7.7.8.&.= @ t y y t & * z ` v ) v ) v ) v ) v ) ",
"v ) v ) v v c q % % % % % % % % % % % % % % % % % i E n   6 c x l l z k g k ` ) z l l l g d @ . . @ x c v v ) v ) v ) v ) v ) v ",
") v ) v ) v ) 0 o % % % % % % o % o % o % o % o $ r C p   5 c x k j g g g j x x k k k k k g X   $ = x ) v ) v ) v ) v ) v ) v ) ",
"v ) v ) v ) v v c c c c c c c c c c c c c c c c c f O .   * k k k d X X X X o % g k k k k g X o z c v v ) v ) v ) v ) v ) v ) v ",
") v ) v ) v ) v ) v ) ) ) ) v ) v ) v ) v ) v ) ) j X     * j j g q X X X X X % g g k k g d % * c ) v ) v ) v ) v ) v ) v ) v ) ",
"v ) v ) v ) v ) v v v v ) ) v v ) v ) v ) v ) v ) c x d   * k d o 7 z x x x x k % % g g % * l x v v v v ) v ) v ) v ) v ) v ) v ",
"v v v v v v v v v v v v ) ) v v v v v v ) ) v v v ) ) j X = g q   5 v ) / Q ) x % % g d X o c ) v v v v ) ) v v v v v v v v v v ",
") v ) v ) v v v v v v v v v v v v v v ) v ) v v v v v c x j % X   5 v v / v / v x k * o   % c ) v v v v ) v v ) v ) v ) v v v ) ",
"v v v v v v v v v v v v v v v v v v v v v v v v v v v ) ) k       5 v v v v v v ) x o     % c ) v v v v ) ) v v v v v v v v v v "
};
