/* XPM */
static char *e23437b1c7394100e75188c7c01346cfYNBtvoxW9j9LtFWy[] = {
/* columns rows colors chars-per-pixel */
"64 64 138 2 ",
"   c #473B2D",
".  c #4A3E2C",
"X  c #463D34",
"o  c #493F32",
"O  c #443E3A",
"+  c #4E412E",
"@  c #51432F",
"#  c #4C4234",
"$  c #46403D",
"%  c #4A433B",
"&  c #514533",
"*  c #564935",
"=  c #594B36",
"-  c #52473B",
";  c #554A3B",
":  c #5A4D3B",
">  c #5E503D",
",  c #61533E",
"<  c #444244",
"1  c #494442",
"2  c #4D4846",
"3  c #45454D",
"4  c #48474D",
"5  c #4D4A4C",
"6  c #534B42",
"7  c #5A4F44",
"8  c #554F49",
"9  c #5D5244",
"0  c #56514F",
"q  c #5C5349",
"w  c #474750",
"e  c #474850",
"r  c #4A4A53",
"t  c #4F4F58",
"y  c #514F54",
"u  c #555256",
"i  c #5A5554",
"p  c #5E5855",
"a  c #53535D",
"s  c #5A5759",
"d  c #5E595A",
"f  c #625543",
"g  c #665846",
"h  c #685A47",
"j  c #61564A",
"k  c #65594B",
"l  c #6A5D4B",
"z  c #655B52",
"x  c #6A5E52",
"c  c #655E5C",
"v  c #6E614E",
"b  c #71634F",
"n  c #6D6153",
"m  c #6A625C",
"M  c #736552",
"N  c #766955",
"B  c #786A56",
"V  c #71665C",
"C  c #766A5C",
"Z  c #7A6D5C",
"A  c #7F715C",
"S  c #565661",
"D  c #5A5A65",
"F  c #5E5E6A",
"G  c #635F62",
"H  c #605F6A",
"J  c #666164",
"K  c #696363",
"L  c #62626D",
"P  c #69656B",
"I  c #6D686C",
"U  c #716762",
"Y  c #746B64",
"T  c #7A6F64",
"R  c #736C6A",
"E  c #786F6A",
"W  c #7C7164",
"Q  c #7C726C",
"!  c #676774",
"~  c #696772",
"^  c #676875",
"/  c #696976",
"(  c #6C6C7C",
")  c #6D6D7D",
"_  c #726E73",
"`  c #706E79",
"'  c #7C7371",
"]  c #7E7673",
"[  c #7C7474",
"{  c #7D767A",
"}  c #7F787C",
"|  c #807469",
" . c #827872",
".. c #817875",
"X. c #827A7B",
"o. c #80797F",
"O. c #6F6F80",
"+. c #6F7081",
"@. c #707081",
"#. c #737385",
"$. c #747487",
"%. c #797787",
"&. c #7C7883",
"*. c #7E7A86",
"=. c #76768A",
"-. c #77778B",
";. c #79798D",
":. c #7B7B8F",
">. c #7C7B90",
",. c #7D7D93",
"<. c #7E7E92",
"1. c #7F7F94",
"2. c #817B83",
"3. c #827C84",
"4. c #827D87",
"5. c #827E89",
"6. c #827E8C",
"7. c #837F8C",
"8. c #817F91",
"9. c #807F95",
"0. c #898283",
"q. c #83808F",
"w. c #86818C",
"e. c #89848C",
"r. c #828090",
"t. c #838194",
"y. c #848294",
"u. c #898695",
"i. c #8D8896",
"p. c #83839A",
"a. c #84849A",
"s. c #86859C",
"d. c #87879D",
"f. c #8C8A9D",
"g. c #8B8AA2",
"h. c #8F8FAA",
"j. c #908EA2",
"k. c #9291AC",
/* pixels */
"! ! ! ! ! ! ! ! / ! ! ! ! ! ! ! ! ! ! L D a r 4 3 n q 3 4 4 e e e e e e e e e e e e e e r t t t t t t r e e e e 4 6 g P / ! ! ! ",
"! ! ! ! ! ! ! ! / ! ! ! ! ! ! ! ! L D a r e 4 3 2 M h 1 < 3 3 3 4 4 4 4 4 4 4 4 4 4 4 4 w e e e w w 4 4 4 4 4 3 3 2 g J / ! ! ! ",
"! ! ! ! ! ! ! ! ! / ! ! ! ! ! ! L S t e e 4 3 1 f N N l ; % % % $ $ $ 1 < < < < < < < < < < < < < < < < < < 3 < < 6 g c / ! ! ! ",
"! ! ! ! ! ! ! ! ! ! ! ! ! ! L D a r e 4 3 < ; l C Q ....] ' Q Y Y V m n x k f 9 9 : : = : : 7 : * - * ; ; - - * : f h z ^ ! ! ! ",
"! ! ! ! ! ! ! ! ! ! ! ! L D a r e e 4 < % > M C &.a.<.;.;.9.<.<.<.<.8.8.r.q.6.5.4.4.2.2.2.o.o.} ] Q E Q ] E Y Y Y n l k S F ! ! ",
"F L L ! ! ! ! ! ! ! L F S t e 4 4 < O & , V R ) @.O.) ) ) ) ) ) ) ) ) O.O.@.@.#.#.$.=.=.=.=.=.=.;.>.<.1.p.a.s.s.s.y.V l s S S D ",
"S S S S D D F F F D S a r e 4 3 < & f n R ` ) ) ) ) / / / / / / / / / / / / / / / / / / / / / / / / / / / / ) ) O.#.K l i S S S ",
"S a a a a a a t t r e e e 3 O # > v Y ` ) ) ) / / / ! ! / / ! ! ! ! ! ! ! ! ! ! ! ! ! ! ! ! ! ! ! ! ! ! / ! ! / / ) K h i S S S ",
"t t r r r r e e e e e 4 < o = l U _ ) ) / / ! ! ! ! ! ) ) ! ! ! ! ! ! ! ! ! ! ! ! ! ! ! ! ! ! ! ! ! ! ! / ! ! ! ! / P g q a t t ",
"e e e e e e e e 4 3 < X + h U ~ ) ) ) / ! ! ! ! ! ! ! ! ! ! ! ! ! ! ! ! ! ! ! ! ! ! ! ! ! ! ! ! ! ! ! ! ! ! F F D D D h j t e e ",
"3 3 < < < $ O X     . = l J L ! ! ! ! ! ! ! ! ! ! ! ! ! ! ! ! ! ! ! ! ! ! ! ! ! ! ! ! ! ! ! ! ! L F D S a D a t r e 4 9 h 5 3 3 ",
"o # & & : f f > > , l N G S a a a D F F L L L L L L L L L L ! ! L L ! ! ! ! ! ! ! L L L L F D D a t t r e e e 4 4 3 $ : v f & # ",
"M C Q 2.e.u.u.u.u.] N z t r t t t t a a a a a a a a a a a S a a a a a S S S S S a a a a t t t r e e e 4 3 < $ O X . @ g N N M v ",
"f.g.g.a.p.1.;.;.>.*.V j 4 4 4 4 w e e e e e e e e e e e e e e e e e e e e e e e e e e 4 4 4 4 3 < O X   . . @ = f n Y ] X.2.r.u.",
"=.$.@.) ) ) ) ) ) ) m l 8 < < < < < < < < < < < < < < < < < < < < 3 < < < < < < < < < < $ O o # & = f x U ' } 4.6.8.<.;.;.=.=.=.",
"/ / / / / ) ) ) ) ) c v b g : * & + + + + & & @ @ + + * * * & # & & & & & & & & * > f 9 f x Y { w.u.f.s.a.<.=.@.O.) ) / / / / / ",
"! ! ! ! ! ! ! / ) ) c M Z W Q W E E E E E Q Q ' ' [ [ { o.2.o.} { { { { ] ] Q E C B N X.g.k.h.s.1.;.#.) ) / / / / / / ! ! ! ! ! ",
"! ! ! ! ! ! ! ! ) ) c M ' y.a.a.a.a.s.s.s.s.a.a.s.s.s.p.p.p.1.t.p.p.s.s.s.g.g.h.u.C V a.p.=.@.) ) / / / / ! ! ! ! ! ! ! ! ! ! ! ",
"! ! ! ! ! ! ! ! ) O.J M ~ O.` ` ) ) ) ) ) ) ) ) ) ) ) ) ) ) ) ) ) ) ) ) ) @.@.*.a.V k ) ) ) ) / / ! ! ! ! ! ! ! ! ! ! ! ! ! ! ! ",
"! ! ! ! ! ! ! ! / O.K n ~ O.) ) ) ) ) ) ) ) ) ) / / / / / / / ) ) / #.) ) ) ) ) / j j / O.) / ! ! ! ! ! ! ! ! ! ! ! ! ! ! ! ! ! ",
"! ! ! ! ! ! ! ! / O.K n ~ O.+.` ) ) ) / / ! ! ! ! ! ! ! ! ! ! ! ! ! / / ) ) ) ) ~ f j ) @./ ! ! ! ! ! ! ! ! ! ! ! ! ! ! ! ! ! / ",
"! ! ! ! ! ! ! ! / ) K n / ) @.) ) / ! ! ! ! ! ! ! ! ! ! ! ! ! ! ! / ! ! / ) ) ) / f j ) ) ) / ! ! ! ! ! ! ! ! ! ! ! ! ! ! ! / / ",
"! ! ! ! ! ! ! ! / O.K n ) ) ) / / ! ! ! ! ! ! ! ! ! ! ! ! ! ! ! ! / ! ! ! / ) ) / j j / / ! ! ! ! ! ! ! ! ! ! ! ! ! ! / ) / ! ! ",
"! ! ! ! ! ! ! ! / ) J n / ) ) ! ! ! / ! ! ! ! / ! ! ! ! ! ! ! ! ! ! / ^ ! ! / ) ) j j / / ! ! ! ! ! ! ! ! ! ! ! ! / / ) / ! ! ! ",
"! ! ! ! ! ! ! ! / ) J v I ) / ! ! ! ! ! ! ! ! ! / ! ! ! ! ! ! ! ! ! ! ! ! ! / / / k j L L ! ! ! ! ! ! ! ! ! ! ! ! ! ! ! ! ! ! ! ",
"! ! ! ! ! ! ! ! L F d v I ) / ! ! ! ! ! ! ! ! ! ! ! ! ! ! ! ! ! ! ! ! ! ! ! L F F f 9 a S D F F L ! ! ! ! ! ! ! ! ! ! ! ! ! ! ! ",
"! ! ! ! ! L F D a t y l K / / ! ! ! ! ! ! ! ! ! ! ! ! ! ! ! ! ! ! ! ! ! L D S S a f 9 y a a a S S D D F F F F L L L L L ! ! ! ! ",
"S S S S S S a a t e 5 l c F L L ! ! ! ! ! ! ! ! ! ! ! ! ! ! ! ! L L L F D S a a a 9 9 e e t t a a a a a a a a a a a S S S S S S ",
"r e e e e e r e e 4 5 l d S S S S D F L L L L L L F F F F F D D D S S S a a t t r 9 f 3 4 4 e e e e r r e e e e e e r t t t t t ",
"4 4 4 4 4 4 4 4 3 3 1 l d S a a a S S D D S S S S S S S S S a a a a a t e w 4 3 3 k b 6 < 3 3 3 3 3 4 4 4 4 4 4 4 4 4 4 4 4 4 4 ",
"O O O O O O O O O % : b p S S S S S S S S S S a a a a a t t e e e w 4 3 3 < < 1 9 M B l * . o X X X X O O O O O O O O O O O O O ",
"f > : : : : = : , f b N p a a a a a a a a a a t t e e e 4 4 4 3 3 < < < % & : h N T W W C n l h f , > : = * = > f f f g g f f f ",
"f.i.u.e.w.w.w.4.4.X.T B j t e r t t t r r r e w 4 4 3 < < $ % % % 6 j x V ' 4.e.i.f.s.a.s.f.i.i.u.u.u.u.u.w.2.C Z e.f.j.j.f.f.f.",
"<.;.;.;.;.>.>.>.<.<.[ B h 5 4 4 4 4 4 4 4 < < O O # - * : f n Y ] w.f.g.g.s.t.<.;.#.@.O.@.@.@.#.#.$.=.;.>.1.g.E C t.1.;.<.<.<.<.",
") ) ) ) ) ) ) ) ) ) ) U b 6 < < < < $ $ % & * : f h b E u.i.f.s.a.1.;.$.@.O.) ) ) ) ) / / / / ) ) ) ) ) ) O.@.V n / ) ) ) ) ) ) ",
"/ / / / / ! ! ! ! / / ~ N l : * = > g l V Y [ *.5.Y M _ <.=.#.@.O.) ) ) ) ) / / / ! ! ! ! ! ! ! / / / / ) @./ l x / ) ) / / / / ",
"! ! ! ! ! ! ! ! ! ! ! / C N M E 2.w.r.8.<.;.*.$.@.n l K O.O.O.) / / / / ! ! ! ! ! ! ! ! ! ! ! ! ! ! ! ! / O./ l l / ) / ! ! ! ! ",
"! ! ! ! ! ! ! ! ! ! ! / U N ] k.h.p.=.@.) ) ) ) ) z l P @.) ) / ! ! ! ! ! ! ! ! ! ! ! ! ! ! ! ! ! ! ! ! / ) / h k / / ! ! ! ! ! ",
"! ! ! ! ! ! ! ! ! ! ! ! m M { 1.@.) / / / / ) ) ) x l P @.) / ! ! ! ! ! ! ! ! ! ! ! ! ! ! ! ! ! ! ! ! ! ! ) / h k ) / ! ! / ! ! ",
"L ! ! ! ! ! ! ! ! ! ! L z b I ) / ! ! ! ! ! / ) / l l P ) / ! ! ! ! ! ! ! / / ! ! ! ! ! ! ! ! ! ! ! ! ! ! ) / h k / / ! ! ! / L ",
"! L ! ! ! ! ! ! ! ! ! F q v I ) ! ! ! ! ! ! ! / / x l P / ! ! ! ! ! ! ! ! ! / ! ! ! ! ! ! ! ! ! ! ! ! ! ! / ~ h k / / ! ! ! / ) ",
"/ ! L ! ! ! ! ! ! ! ! S 9 n / / ! ! ! ! ! ! ! / / l l P / ! ! ! ! ! ! ! ! ! / ! ! ! ! ! ! ! ! ! ! ! ! ! ! / ~ h j / / ! ! ! ! ! ",
"! ! ! ! ! ! ! ! ! ! ! s f n / / ! ! ! ! ! ! ! / / l h J ! ! ! ! ! ! ! ! ! ! ! ! ! ! ! ! ! ! ! ! ! ! ! ! ! / ~ h k / ! ! ! ! ! ! ",
"! ! ! ! ! ! ! ! ! ! L u f m / ! ! ! ! F ! ! ! ^ / l g G ! ! ! ! ! ! ! ! ! ! ! ! ! ! ! ! ! ! ! ! ! ! ! ! ! ^ / k k / ! ! ! ! ! ! ",
"! ! ! ! ! ! ! ! ! ! F 0 g K / ! ! ! / ! ! ! ! ! / k g s L ! ! ! ! ! ! ! ! ! ! ! ! ! ! ! ! ! ! ! ! ! ! ! ! ! ~ h k ~ ! ! ! ! ! ! ",
"! ! ! ! ! ! ! ! ! ! S q l I / ! ! ! ! ! ! ! ! ! ~ l h i D D F F L L ! ! ! ! ! ! ! ! ! ! ! ! ! ! ! ! ! ! ! ! P h k ! ! ! ! ! ! ! ",
"! ! ! ! ! ! ! ! ! F a 9 l P ! ! ! ! / ) / ! ! ! P l l u a a a a S S D D F F F F F L L ! ! L L L L F F F D D D g k ! ! ! ! ! ! ! ",
"! ! ! ! ! ! ! ! L S a f l F ! ! ! ! ! ! / ! ! ! P h k 4 e e t t t t a t t t a a a a S S a a a a a a S a a a u f k ! ! ! ! ! ! ! ",
"! ! ! ! ! L F D a a u h k a D L ! ! ! ! ! ! ! ! P h l 1 < 3 3 4 4 4 4 4 4 w w e e e e e e e r t t t t t r e 4 9 j H ! ! ! ! ! ! ",
"F F F D S a a t e e 5 l q t a S D L ! ! ! ! ! ! P h N g & # X X X O O O O O O $ < < < < < 3 3 3 3 4 3 3 3 3 < j j S D F L L L L ",
"a t t t t r e 4 3 3 6 l 7 3 e r t a S D F L L ! J l A Z C M v l h g f , > = * * * & & & & # # # # % % % % $ 6 v j a a a a a a a ",
"4 4 4 4 3 < < % X # f M l 6 < 3 4 e r t t t a a s h W e.f.f.f.f.u.e.e.e.0.0.X.X.X. .Q Q | W Z C N M v v l v b N j 4 e e e e e e ",
"< < 1 6 6 : : : f x C T Z n 7 % $ < 3 4 e e e e r 9 V g.s.1.;.>.<.1.1.1.1.t.p.a.s.s.s.f.f.f.f.f.f.f.i.e.e.e.X.Z n 2 < 3 < < < < ",
"j z V Q { { 2.r.r.6.<.8.6.r.4.Y h : & % $ < 3 3 < f n ) ) ) ) ) ) ) ) ) ) ) ) ) ) ) ) ) O.@.#.=.=.;.>.<.<.1.a.{ N l : * * * : f ",
"6.8.;.;.;.*.=.$.@.` ) ) ) #.1.a.q.} Y n f * ; - 6 b x / O.O.O.) ) ) / / / / / / / / ) ) ) ) ) ) ) ) ) ) ) ) @.6.Z N M V E { 4.5.",
"+.O.) ) ) ) ) / ) ) / / / / / / O.=.<.r.5.[ V v b B x / @.O.) / / / ! ! ! ! ! / ! ! ! / / / / / / / / ) ) ) ) *.Z B 6.f.t.;.#.@.",
") ) / / / / ! ! ! ! ! ! ! ! ! ! ! / / ) #.;.8.4.W B n / @.) / ! ! ! ! ! ! ! ! ! ! ! ! ! ! ! ! ! ! ! ! ! / / ) ) Z C %.#.) ) ) ) ",
"! ! ! ! ! ! ! ! ! ! ! ! ! ! ! ! ! ! ! ! ! / ) $.' B n / ) / ! ! ! ! ! ! ! ! ! ! ! ! ! ! ! ! ! ! ! ! ! ! ! ! / ) Y M P O.O.) / / ",
"! ! ! ! ! ! ! ! ! ! ! ! ! ! ! ! ! ! ! ! ! ! ! ! c N n / / ! ! ! ! ! ! ! ! ! ! ! ! ! ! ! ! ! ! ! ! ! ! ! ! ! / / Y N K O.) / ! ! ",
"! ! ! ! ! ! ! / ! ! ! ! ! ! ! ! ! ! ! ! ! ! ! L s N n / / ! ! ! ! ! ! ! ! ! ! ! ! ! ! ! / / / ! ! ! ! ! ! ! ! ! K N m ) ) ! ! ! ",
"! ! ! ! ! ! ! ) ! ! ! ! ! ! ! ! ! ! ! ! ! ! ! F u n x L ! ! ! ! ! / ! ! ! ! ! ! ! ! ! / / / / ! ! ! ! ! ! ! ! D d M z / / ! ! ! ",
"! ! ! ! ! ! ! ) ! ! ! ! ! ! ! ! ! ! ! ! ! ! ! S u l j S L ! ! ! ! ! / ! ! ! ! ! ! ! ! ! ! ! ! ! ! ! ! ! ! L D a s v k / / ! ! ! ",
"! ! ! ! ! ! ! ) / ! ! ! ! ! ! ! ! ! ! ! ! ! F a y l j a S D F F F L L L ! ! ! ! ! ! ! ! ! ! ! ! ! ! L F D D a r r k h ~ / ! ! ! ",
"! ! ! ! ! ! ! / / ! ! ! ! ! ! ! ! ! ! ! ! ! S t r x j t t a a a a a a a a a S S S S S D D D D D S S a a S a t e e q h P / ! ! ! "
};
